<svg width="117" height="35" viewBox="0 0 117 35" fill="none" xmlns="http://www.w3.org/2000/svg">
<path d="M108.83 14V11.4683H108.046V10.908H110.245V11.4683H109.473V14H108.83ZM110.564 14V10.908H111.186L112.344 12.4436H112.054L113.179 10.908H113.801V14H113.158V11.6177L113.415 11.6758L112.224 13.2114H112.141L110.991 11.6758L111.207 11.6177V14H110.564Z" fill="black"/>
<path d="M48.1857 27.9798C49.2217 27.9798 50.1381 27.7905 50.9349 27.412C51.7318 27.0136 52.3394 26.4159 52.7578 25.6191V27.6212H56.9414V11.3053H52.4589V20.8378C52.4589 21.7742 52.18 22.5312 51.6222 23.1089C51.0644 23.6667 50.3472 23.9456 49.4707 23.9456C48.5941 23.9456 47.8769 23.6667 47.3191 23.1089C46.7613 22.5312 46.4824 21.7742 46.4824 20.8378V11.3053H42V21.1964C42 23.2285 42.5279 24.872 43.5838 26.1271C44.6596 27.3622 46.1935 27.9798 48.1857 27.9798Z" fill="black"/>
<path d="M60.2175 9.841H64.6999V5.35859H60.2175V9.841ZM60.2175 27.6212H64.6999V11.3053H60.2175V27.6212Z" fill="black"/>
<path d="M69.9522 27.6212H74.4346V15.19H77.9309V11.3053H74.4346V11.0662C74.4346 9.6119 75.2813 8.88475 76.9747 8.88475C77.2536 8.88475 77.5823 8.91463 77.9608 8.9744V5.14941C77.5026 5.0498 76.9747 5 76.377 5C74.345 5 72.7612 5.52793 71.6257 6.58378C70.51 7.63964 69.9522 9.13377 69.9522 11.0662V11.3053H67.203V15.19H69.9522V27.6212Z" fill="black"/>
<path d="M80.2366 27.6212H84.719V18.8357C84.719 17.6205 85.0576 16.6841 85.735 16.0267C86.4123 15.3494 87.2988 15.0107 88.3945 15.0107H89.799V11.126H88.8428C87.8467 11.126 86.9602 11.3152 86.1832 11.6937C85.4262 12.0523 84.8385 12.7396 84.4201 13.7556V11.3053H80.2366V27.6212Z" fill="black"/>
<path d="M94.3036 34.2552C97.2919 34.2552 99.4534 32.5519 100.788 29.1452L107.781 11.3053H102.97L99.1147 21.7941L95.2599 11.3053H90.4487L96.8735 27.6212L96.5747 28.3085C96.3356 28.8464 96.0268 29.3245 95.6483 29.7429C95.2698 30.1612 94.6423 30.3704 93.7657 30.3704C93.0485 30.3704 92.3712 30.2708 91.7337 30.0716V33.7472C92.0724 33.9265 92.4608 34.056 92.8991 34.1356C93.3573 34.2153 93.8255 34.2552 94.3036 34.2552Z" fill="black"/>
<path d="M26.3829 10.8852C26.1564 10.6651 25.8387 10.5651 25.5277 10.6163C25.2162 10.6672 24.9472 10.8628 24.8027 11.1434C24.3057 12.1089 23.6745 12.9961 22.9318 13.7805C23.0058 13.2139 23.0431 12.6439 23.0431 12.0724C23.0431 10.9759 22.8961 9.84742 22.6061 8.71805C21.6527 5.00853 19.1525 1.87144 15.7468 0.111205C15.4503 -0.0419942 15.097 -0.0366153 14.8053 0.125549C14.5136 0.287779 14.3226 0.585213 14.2964 0.917908C14.0309 4.28895 12.2945 7.35586 9.52981 9.33424C9.49322 9.3606 9.4569 9.38729 9.42057 9.41386C9.34534 9.46891 9.27441 9.52097 9.20814 9.56467C9.19778 9.57157 9.18749 9.57861 9.17739 9.58585C7.43861 10.8308 6.00391 12.4903 5.0282 14.3854C4.03675 16.3131 3.53406 18.3818 3.53406 20.5336C3.53406 21.6299 3.68101 22.7583 3.97088 23.8879C5.50055 29.8417 10.8585 33.9999 17.0004 33.9999C24.4253 33.9999 30.4659 27.9589 30.4659 20.5336C30.4659 16.872 29.0159 13.4454 26.3829 10.8852Z" fill="#FF5555"/>
<circle cx="16" cy="20" r="4" fill="white"/>
</svg>
