<?xml version="1.0" encoding="UTF-8"?>
<svg version="1.1" xmlns="http://www.w3.org/2000/svg" width="34" height="34">
<path d="M0 0 C2.25 0.125 2.25 0.125 5 1 C7.51871094 4.14838867 9.3808667 6.97563355 10 11 C11.32 11 12.64 11 14 11 C16.66427075 15.55146253 17.64718677 18.7300506 17 24 C15.62712495 27.5798086 13.72657977 30.33753021 10.875 32.9375 C6.54418107 34.53802004 2.55751179 34.65002973 -2 34 C-5.83378636 32.18766463 -7.53351018 30.69973473 -9.875 27.1875 C-11.74659262 21.88465425 -11.6970305 18.49732477 -9.3125 13.375 C-7.28485135 10.14230749 -4.6933804 7.6933804 -2 5 C-0.680982 2.33466965 -0.680982 2.33466965 0 0 Z " fill="#FF5555" transform="translate(14,0)"/>
<path d="M0 0 C2.625 0.375 2.625 0.375 5 1 C5.625 3.375 5.625 3.375 6 6 C5.34 6.66 4.68 7.32 4 8 C1.375 7.625 1.375 7.625 -1 7 C-1.625 4.625 -1.625 4.625 -2 2 C-1.34 1.34 -0.68 0.68 0 0 Z " fill="#FFF6F6" transform="translate(14,16)"/>
</svg>
